PathFileType	3	(X/Y/Z)	D:\Students\303\Renee\Session 1\Renee Cal 01.trc
DataRate	CameraRate	NumFrames	NumMarkers	Units	OrigDataRate	OrigDataStartFrame	OrigNumFrames
100.0	100.0	13	27	mm	100.0	525	599	
Frame#	Time	RASIS			LASIS			RPSIS			LPSIS			RKneeLateral			RKneeMedial			LKneeLateral			LKneeMedial			RAnkleLateral			RAnkleMedial			RShank			RFibula			LAnkleLateral			LAnkleMedial			LShank			LFibula			RMT2			RHeel			RMT5			RToe			LMT2			LHeel			LMT5			LToe			Sternum			LShoulder			RShoulder			
		X1	Y1	Z1	X2	Y2	Z2	X3	Y3	Z3	X4	Y4	Z4	X5	Y5	Z5	X6	Y6	Z6	X7	Y7	Z7	X8	Y8	Z8	X9	Y9	Z9	X10	Y10	Z10	X11	Y11	Z11	X12	Y12	Z12	X13	Y13	Z13	X14	Y14	Z14	X15	Y15	Z15	X16	Y16	Z16	X17	Y17	Z17	X18	Y18	Z18	X19	Y19	Z19	X20	Y20	Z20	X21	Y21	Z21	X22	Y22	Z22	X23	Y23	Z23	X24	Y24	Z24	X25	Y25	Z25	X26	Y26	Z26	X27	Y27	Z27	
525	5.24	-144.49925	886.495	-496.69052	-419.03156	888.55267	-494.63339	-219.27322	942.74988	-285.81253	-339.21582	946.16144	-281.82941	-114.15801	428.66064	-383.30334				-476.87079	441.76926	-369.5278										-105.42386	313.70181	-363.55142	-112.8704	389.06473	-374.06732	-451.52597	56.84906	-360.92172				-473.61624	313.8678	-387.35263	-479.74759	409.66159	-361.18567	-177.07968	23.852364	-515.60156	-189.58177	21.020863	-304.17792	-136.17598	20.365053	-495.32977				-416.19528	21.546824	-523.79047	-402.20221	29.654768	-312.94424	-453.59726	19.26675	-497.28397				-293.28622	1308.4391	-479.1087	-426.83481	1358.5363	-371.04514	-134.13103	1370.376	-405.17172
526	5.25	-144.48253	886.50519	-496.77484	-419.05411	888.5564	-494.71094	-219.26886	942.73914	-285.89059	-339.20126	946.15015	-281.90637	-114.172	428.66696	-383.37122				-476.85706	441.75931	-369.58682										-105.44137	313.70538	-363.59528	-112.90013	389.06451	-374.11404	-451.51056	56.848423	-360.91827				-473.60858	313.8696	-387.38611	-479.74207	409.67447	-361.24161	-177.08868	23.864822	-515.61249	-189.58739	21.027403	-304.17099	-136.18875	20.371361	-495.32767				-416.20062	21.545948	-523.79291	-402.30231	29.72027	-312.75076	-453.60733	19.277136	-497.29291				-293.29791	1308.4246	-479.17294	-426.84253	1358.4956	-371.11285	-134.14841	1370.4152	-405.22632
527	5.26	-144.4646	886.53137	-496.85434	-419.04227	888.55975	-494.78387	-219.26355	942.72607	-285.96924	-339.18185	946.12939	-281.98438	-114.20609	428.66418	-383.44928				-476.86633	441.77423	-369.63275										-105.47802	313.71396	-363.65829	-113.06881	389.05527	-374.14389	-451.49866	56.833477	-360.91852				-473.63321	313.87793	-387.42841	-479.75064	409.6684	-361.29349	-177.10231	23.861059	-515.61859	-189.61234	21.036982	-304.16718	-136.19299	20.369314	-495.32761				-416.20441	21.540297	-523.80029	-402.29059	29.740217	-312.74902	-453.61472	19.267086	-497.29373				-293.30539	1308.4114	-479.23816	-426.73215	1358.4821	-371.02835	-134.16544	1370.4567	-405.29669
528	5.27	-144.48016	886.5343	-496.91345	-419.03809	888.56299	-494.86322	-219.28159	942.71423	-286.03284	-339.18622	946.11292	-282.06467	-114.24389	428.66013	-383.53488				-476.86572	441.7551	-369.69656										-105.51047	313.72281	-363.71063	-112.96218	389.07541	-374.26947	-451.49902	56.814877	-360.93546				-473.64767	313.87036	-387.47144	-479.74689	409.66251	-361.34653	-177.10461	23.854605	-515.62573	-189.61992	21.034788	-304.17865	-136.21608	20.378284	-495.32382				-416.19861	21.530005	-523.80347	-402.29813	29.726557	-312.76212	-453.61404	19.264973	-497.31232				-293.32062	1308.4022	-479.30927	-426.7345	1358.4479	-371.08276	-134.17877	1370.4764	-405.35672
529	5.28	-144.48413	886.53564	-496.98801	-419.06277	888.5686	-494.98355	-219.29114	942.70111	-286.09247	-339.19147	946.10345	-282.14777	-114.255	428.68143	-383.62775				-476.87122	441.76538	-369.74097										-105.523	313.7457	-363.79193	-112.98653	389.08279	-374.33398	-451.50375	56.8274	-360.93762				-473.66425	313.87973	-387.5256	-479.74774	409.66702	-361.39987	-177.12285	23.858917	-515.64008	-189.64497	21.042768	-304.19785	-136.21985	20.384497	-495.33878				-416.20358	21.525579	-523.80499	-402.30539	29.733967	-312.7558	-453.62241	19.253941	-497.31967				-293.32489	1308.3793	-479.37775	-426.73511	1358.4164	-371.13297	-134.18291	1370.5057	-405.43256
530	5.29	-144.47182	886.54163	-497.0762	-419.06445	888.57452	-495.09436	-219.31006	942.69427	-286.16632	-339.20773	946.10083	-282.24142	-114.27397	428.69452	-383.70911				-476.87936	441.7782	-369.785										-105.54422	313.75342	-363.89005	-113.04137	389.08008	-374.41821	-451.50595	56.835773	-360.93002				-473.66501	313.8739	-387.55746	-479.76801	409.68936	-361.44354	-177.12234	23.853279	-515.65662	-189.66185	21.051096	-304.21457	-136.22823	20.381992	-495.33826				-416.19196	21.525423	-523.81659	-402.33224	29.75712	-312.74734	-453.62469	19.24802	-497.32248				-293.34042	1308.3658	-479.43518	-426.73193	1358.3896	-371.17307	-134.19319	1370.528	-405.52383
531	5.3	-144.46393	886.55493	-497.18268	-419.04987	888.56488	-495.19806	-219.33546	942.70538	-286.25192	-339.22101	946.10632	-282.34369	-114.2923	428.70047	-383.78516				-476.90015	441.78284	-369.83789										-105.56812	313.75311	-363.96045	-113.05647	389.08313	-374.51898	-451.50732	56.826595	-360.94226				-473.66315	313.85291	-387.5751	-479.78476	409.67972	-361.49658	-177.12946	23.853748	-515.66406	-189.66884	21.05854	-304.21106	-136.22845	20.379337	-495.34381				-416.1911	21.515093	-523.80688	-402.34521	29.785265	-312.73587	-453.61902	19.246805	-497.3208				-293.33984	1308.3197	-479.50177	-426.7254	1358.3679	-371.21359	-134.19466	1370.5555	-405.61298
532	5.31	-144.45918	886.5625	-497.27609	-419.0304	888.54321	-495.30847	-219.35524	942.69635	-286.35291	-339.24799	946.11212	-282.46289	-114.3102	428.69873	-383.88419				-476.9119	441.77615	-369.88373										-105.57439	313.76813	-364.02795	-113.06876	389.08679	-374.58908	-451.50226	56.818787	-360.93369				-473.65604	313.84448	-387.60831	-479.79486	409.68811	-361.52502	-177.14333	23.844122	-515.6698	-189.673	21.060356	-304.21848	-136.23256	20.386826	-495.34668				-416.18701	21.517231	-523.815	-402.36819	29.797335	-312.72137	-453.6153	19.242796	-497.32126				-293.34335	1308.2924	-479.57352	-426.70624	1358.3574	-371.25659	-134.20775	1370.5663	-405.69275
533	5.32	-144.44501	886.56104	-497.38269	-419.02975	888.54034	-495.41663	-219.36658	942.68182	-286.4689	-339.27728	946.12018	-282.57065	-114.32341	428.67929	-383.95419				-476.90393	441.75818	-369.92023										-105.58081	313.76047	-364.07541	-113.0761	389.07413	-374.66019	-451.51291	56.834618	-360.92313				-473.63919	313.8299	-387.6286	-479.79037	409.66956	-361.55774	-177.13661	23.82795	-515.66742	-189.69943	21.058439	-304.22751	-136.23825	20.382456	-495.35001				-416.18756	21.497236	-523.81384	-402.37762	29.82398	-312.69489	-453.60172	19.235029	-497.32211				-293.33118	1308.2762	-479.63016	-426.6759	1358.3456	-371.28665	-134.21922	1370.5729	-405.77362
534	5.33	-144.4406	886.51764	-497.49078	-419.03677	888.54596	-495.53958	-219.3748	942.66766	-286.58966	-339.29767	946.10858	-282.689	-114.31145	428.67416	-384.0032				-476.91373	441.74863	-369.9649										-105.57638	313.76605	-364.11029	-113.07758	389.065	-374.71274	-451.51114	56.830322	-360.92065				-473.64731	313.81924	-387.64673	-479.79926	409.66605	-361.59863	-177.1384	23.808838	-515.67493	-189.71046	21.061861	-304.24274	-136.22755	20.372051	-495.34845				-416.17319	21.480412	-523.81494	-402.37207	29.810364	-312.69052	-453.61075	19.239565	-497.31314				-293.33051	1308.2692	-479.69391	-426.64114	1358.3213	-371.31635	-134.22658	1370.5702	-405.86209
535	5.34	-144.43826	886.49371	-497.62036	-419.02405	888.52338	-495.65317	-219.38365	942.67047	-286.71838	-339.29968	946.11206	-282.81125	-114.31339	428.67108	-384.05392				-476.93185	441.75064	-370.02002										-105.57021	313.76321	-364.1405	-113.05858	389.05569	-374.76099	-451.51184	56.839848	-360.91409				-473.6442	313.81021	-387.66357	-479.80222	409.67218	-361.61835	-177.14339	23.806381	-515.6731	-189.70331	21.069201	-304.24396	-136.2247	20.365557	-495.3494				-416.17392	21.481464	-523.81787	-402.36508	29.806135	-312.69809	-453.61057	19.244545	-497.31061				-293.32837	1308.2471	-479.75961	-426.60703	1358.3165	-371.34448	-134.23427	1370.5597	-405.94904
536	5.35	-144.44101	886.4649	-497.74066	-419.03854	888.52509	-495.7803	-219.37878	942.66711	-286.85144	-339.31335	946.1076	-282.96039	-114.3091	428.66058	-384.10574				-476.92358	441.77878	-370.04163										-105.55624	313.76328	-364.16971	-113.02792	389.04996	-374.81128	-451.50537	56.853214	-360.91696				-473.64993	313.81168	-387.68958	-479.7955	409.68082	-361.6557	-177.14404	23.800106	-515.68103	-189.72147	21.067759	-304.23706	-136.22067	20.36454	-495.35385				-416.15704	21.484129	-523.81927	-402.20142	29.684614	-312.95108	-453.61273	19.245878	-497.30557				-293.32224	1308.2413	-479.81659	-426.58542	1358.3229	-371.38046	-134.2226	1370.5272	-406.03821
537	5.36	-144.43903	886.42639	-497.87167	-419.04941	888.5257	-495.87982	-219.35162	942.63696	-286.99472	-339.30319	946.09906	-283.10104	-114.31573	428.63565	-384.15195				-476.93381	441.77945	-370.10394										-105.55544	313.73657	-364.20917	-113.02661	389.02487	-374.8606	-451.50247	56.858414	-360.9234				-473.63623	313.79913	-387.72894	-479.79584	409.66592	-361.70901	-177.14845	23.778717	-515.68243	-189.71935	21.080618	-304.24377	-136.23083	20.368937	-495.36014				-416.15607	21.472988	-523.82391	-402.29517	29.759972	-312.75012	-453.60663	19.238667	-497.31177				-293.32864	1308.2136	-479.888	-426.54587	1358.3031	-371.4212	-134.20694	1370.484	-406.13974
